<?xml version="1.0" encoding="UTF-8" standalone="no"?>
<!DOCTYPE svg PUBLIC "-//W3C//DTD SVG 1.1//EN"
 "http://www.w3.org/Graphics/SVG/1.1/DTD/svg11.dtd">
<!-- Generated by graphviz version 12.2.1 (20241206.2353)
 -->
<!-- Title: Conflict Stroop&#45;37 Pages: 1 -->
<svg width="385pt" height="437pt"
 viewBox="0.00 0.00 384.88 436.50" xmlns="http://www.w3.org/2000/svg" xmlns:xlink="http://www.w3.org/1999/xlink">
<g id="graph0" class="graph" transform="scale(1 1) rotate(0) translate(4 432.5)">
<title>Conflict Stroop&#45;37</title>
<polygon fill="white" stroke="none" points="-4,4 -4,-432.5 380.88,-432.5 380.88,4 -4,4"/>
<text text-anchor="middle" x="188.44" y="-7.2" font-family="Times,serif" font-size="14.00">Conflict Stroop&#45;37</text>
<!-- Task Demand&#45;42 -->
<g id="node1" class="node">
<title>Task Demand&#45;42</title>
<ellipse fill="none" stroke="green" stroke-width="3" cx="308.99" cy="-42.5" rx="67.9" ry="18"/>
<text text-anchor="middle" x="308.99" y="-38.23" font-family="arial" font-size="12.00">Task Demand&#45;42</text>
</g>
<!-- Task Hidden&#45;37 -->
<g id="node5" class="node">
<title>Task Hidden&#45;37</title>
<ellipse fill="none" stroke="black" cx="308.99" cy="-114.5" rx="63.6" ry="18"/>
<text text-anchor="middle" x="308.99" y="-110.22" font-family="arial" font-size="12.00">Task Hidden&#45;37</text>
</g>
<!-- Task Demand&#45;42&#45;&gt;Task Hidden&#45;37 -->
<g id="edge5" class="edge">
<title>Task Demand&#45;42&#45;&gt;Task Hidden&#45;37</title>
<path fill="none" stroke="black" d="M308.99,-61.89C308.99,-68.99 308.99,-77.28 308.99,-85.11"/>
<polygon fill="black" stroke="black" points="305.49,-84.92 308.99,-94.92 312.49,-84.92 305.49,-84.92"/>
</g>
<!-- Color In&#45;42 -->
<g id="node2" class="node">
<title>Color In&#45;42</title>
<ellipse fill="none" stroke="green" stroke-width="3" cx="179.99" cy="-114.5" rx="47.86" ry="18"/>
<text text-anchor="middle" x="179.99" y="-110.22" font-family="arial" font-size="12.00">Color In&#45;42</text>
</g>
<!-- Color Hidden&#45;42 -->
<g id="node6" class="node">
<title>Color Hidden&#45;42</title>
<ellipse fill="none" stroke="black" cx="215.99" cy="-186.5" rx="66.46" ry="18"/>
<text text-anchor="middle" x="215.99" y="-182.22" font-family="arial" font-size="12.00">Color Hidden&#45;42</text>
</g>
<!-- Color In&#45;42&#45;&gt;Color Hidden&#45;42 -->
<g id="edge3" class="edge">
<title>Color In&#45;42&#45;&gt;Color Hidden&#45;42</title>
<path fill="none" stroke="black" d="M189.26,-133.53C193.13,-141.05 197.7,-149.94 201.96,-158.23"/>
<polygon fill="black" stroke="black" points="198.74,-159.62 206.43,-166.91 204.97,-156.42 198.74,-159.62"/>
</g>
<!-- Word In&#45;42 -->
<g id="node3" class="node">
<title>Word In&#45;42</title>
<ellipse fill="none" stroke="green" stroke-width="3" cx="65.99" cy="-114.5" rx="47.38" ry="18"/>
<text text-anchor="middle" x="65.99" y="-110.22" font-family="arial" font-size="12.00">Word In&#45;42</text>
</g>
<!-- Word Hidden&#45;42 -->
<g id="node4" class="node">
<title>Word Hidden&#45;42</title>
<ellipse fill="none" stroke="black" cx="65.99" cy="-186.5" rx="65.99" ry="18"/>
<text text-anchor="middle" x="65.99" y="-182.22" font-family="arial" font-size="12.00">Word Hidden&#45;42</text>
</g>
<!-- Word In&#45;42&#45;&gt;Word Hidden&#45;42 -->
<g id="edge2" class="edge">
<title>Word In&#45;42&#45;&gt;Word Hidden&#45;42</title>
<path fill="none" stroke="black" d="M65.99,-133.89C65.99,-140.99 65.99,-149.28 65.99,-157.11"/>
<polygon fill="black" stroke="black" points="62.49,-156.92 65.99,-166.92 69.49,-156.92 62.49,-156.92"/>
</g>
<!-- Output&#45;50 -->
<g id="node7" class="node">
<title>Output&#45;50</title>
<ellipse fill="none" stroke="black" cx="151.99" cy="-258.5" rx="43.57" ry="18"/>
<text text-anchor="middle" x="151.99" y="-254.22" font-family="arial" font-size="12.00">Output&#45;50</text>
</g>
<!-- Word Hidden&#45;42&#45;&gt;Output&#45;50 -->
<g id="edge7" class="edge">
<title>Word Hidden&#45;42&#45;&gt;Output&#45;50</title>
<path fill="none" stroke="black" d="M86.37,-204.09C97.72,-213.33 112.01,-224.96 124.36,-235.01"/>
<polygon fill="black" stroke="black" points="121.79,-237.44 131.76,-241.03 126.21,-232.01 121.79,-237.44"/>
</g>
<!-- Task Hidden&#45;37&#45;&gt;Word Hidden&#45;42 -->
<g id="edge1" class="edge">
<title>Task Hidden&#45;37&#45;&gt;Word Hidden&#45;42</title>
<path fill="none" stroke="black" d="M265.54,-128.01C225.23,-139.63 165.04,-156.97 121.31,-169.56"/>
<polygon fill="black" stroke="black" points="120.38,-166.19 111.74,-172.32 122.32,-172.92 120.38,-166.19"/>
</g>
<!-- Task Hidden&#45;37&#45;&gt;Color Hidden&#45;42 -->
<g id="edge4" class="edge">
<title>Task Hidden&#45;37&#45;&gt;Color Hidden&#45;42</title>
<path fill="none" stroke="black" d="M287.42,-131.74C275.3,-140.86 259.97,-152.4 246.62,-162.44"/>
<polygon fill="black" stroke="black" points="244.86,-159.39 238.97,-168.2 249.07,-164.98 244.86,-159.39"/>
</g>
<!-- Color Hidden&#45;42&#45;&gt;Output&#45;50 -->
<g id="edge6" class="edge">
<title>Color Hidden&#45;42&#45;&gt;Output&#45;50</title>
<path fill="none" stroke="black" d="M200.49,-204.45C192.68,-213 183.05,-223.53 174.44,-232.94"/>
<polygon fill="black" stroke="black" points="172.08,-230.33 167.92,-240.08 177.25,-235.06 172.08,-230.33"/>
</g>
<!-- Decision&#45;47 -->
<g id="node8" class="node">
<title>Decision&#45;47</title>
<ellipse fill="none" stroke="red" stroke-width="3" cx="230.99" cy="-330.5" rx="51.2" ry="18"/>
<text text-anchor="middle" x="230.99" y="-326.23" font-family="arial" font-size="12.00">Decision&#45;47</text>
</g>
<!-- Output&#45;50&#45;&gt;Decision&#45;47 -->
<g id="edge8" class="edge">
<title>Output&#45;50&#45;&gt;Decision&#45;47</title>
<path fill="none" stroke="black" d="M169.91,-275.38C179.76,-284.11 192.18,-295.11 203.24,-304.92"/>
<polygon fill="black" stroke="black" points="200.81,-307.44 210.62,-311.45 205.46,-302.2 200.81,-307.44"/>
</g>
<!-- Conflict Monitor&#45;37 -->
<g id="node10" class="node">
<title>Conflict Monitor&#45;37</title>
<ellipse fill="none" stroke="purple" cx="87.99" cy="-330.5" rx="74.1" ry="18"/>
<text text-anchor="middle" x="87.99" y="-326.23" font-family="arial" font-size="12.00">Conflict Monitor&#45;37</text>
</g>
<!-- Output&#45;50&#45;&gt;Conflict Monitor&#45;37 -->
<g id="edge11" class="edge">
<title>Output&#45;50&#45;&gt;Conflict Monitor&#45;37</title>
<path fill="none" stroke="purple" d="M137.14,-275.74C129.34,-284.27 119.61,-294.92 110.86,-304.48"/>
<polygon fill="purple" stroke="purple" points="108.38,-302.01 104.22,-311.75 113.55,-306.73 108.38,-302.01"/>
</g>
<!-- Control&#45;37 -->
<g id="node9" class="node">
<title>Control&#45;37</title>
<polygon fill="none" stroke="purple" points="248.73,-399.04 248.73,-413.96 219.59,-424.5 178.38,-424.5 149.25,-413.96 149.25,-399.04 178.38,-388.5 219.59,-388.5 248.73,-399.04"/>
<polygon fill="none" stroke="purple" points="252.73,-396.24 252.73,-416.76 220.29,-428.5 177.68,-428.5 145.25,-416.76 145.25,-396.24 177.68,-384.5 220.29,-384.5 252.73,-396.24"/>
<text text-anchor="middle" x="198.99" y="-402.23" font-family="arial" font-size="12.00">Control&#45;37</text>
</g>
<!-- Control&#45;37&#45;&gt;Task Hidden&#45;37 -->
<g id="edge9" class="edge">
<title>Control&#45;37&#45;&gt;Task Hidden&#45;37</title>
<path fill="none" stroke="purple" d="M238.9,-390.87C257.97,-381.72 279.17,-367.92 290.99,-348.5 330.43,-283.68 321.85,-189.23 314.36,-143.02"/>
<polygon fill="purple" stroke="purple" points="308.75,-134.06 316.64,-132.69 318,-140.58 310.12,-141.94 308.75,-134.06"/>
<polyline fill="none" stroke="purple" points="314.06,-141.26 314.4,-143.23"/>
</g>
<!-- Conflict Monitor&#45;37&#45;&gt;Control&#45;37 -->
<g id="edge10" class="edge">
<title>Conflict Monitor&#45;37&#45;&gt;Control&#45;37</title>
<path fill="none" stroke="purple" d="M112.62,-347.92C127.04,-357.53 145.53,-369.86 161.7,-380.64"/>
<polygon fill="purple" stroke="purple" points="159.38,-383.3 169.64,-385.94 163.26,-377.48 159.38,-383.3"/>
</g>
</g>
</svg>