<?xml version="1.0" encoding="UTF-8" standalone="no"?>
<!DOCTYPE svg PUBLIC "-//W3C//DTD SVG 1.1//EN"
 "http://www.w3.org/Graphics/SVG/1.1/DTD/svg11.dtd">
<!-- Generated by graphviz version 12.2.1 (20241206.2353)
 -->
<!-- Title: Linear Stroop&#45;2 Pages: 1 -->
<svg width="370pt" height="285pt"
 viewBox="0.00 0.00 370.24 284.50" xmlns="http://www.w3.org/2000/svg" xmlns:xlink="http://www.w3.org/1999/xlink">
<g id="graph0" class="graph" transform="scale(1 1) rotate(0) translate(4 280.5)">
<title>Linear Stroop&#45;2</title>
<polygon fill="white" stroke="none" points="-4,4 -4,-280.5 366.24,-280.5 366.24,4 -4,4"/>
<text text-anchor="middle" x="181.12" y="-7.2" font-family="Times,serif" font-size="14.00">Linear Stroop&#45;2</text>
<!-- Task Demand&#45;37 -->
<g id="node1" class="node">
<title>Task Demand&#45;37</title>
<ellipse fill="none" stroke="green" stroke-width="3" cx="180.38" cy="-42.5" rx="67.9" ry="18"/>
<text text-anchor="middle" x="180.38" y="-38.23" font-family="arial" font-size="12.00">Task Demand&#45;37</text>
</g>
<!-- Word Hidden&#45;37 -->
<g id="node4" class="node">
<title>Word Hidden&#45;37</title>
<ellipse fill="none" stroke="black" cx="105.38" cy="-114.5" rx="65.99" ry="18"/>
<text text-anchor="middle" x="105.38" y="-110.22" font-family="arial" font-size="12.00">Word Hidden&#45;37</text>
</g>
<!-- Task Demand&#45;37&#45;&gt;Word Hidden&#45;37 -->
<g id="edge1" class="edge">
<title>Task Demand&#45;37&#45;&gt;Word Hidden&#45;37</title>
<path fill="none" stroke="black" d="M161.46,-61.16C152.4,-69.62 141.4,-79.89 131.55,-89.08"/>
<polygon fill="black" stroke="black" points="129.3,-86.39 124.38,-95.77 134.08,-91.51 129.3,-86.39"/>
</g>
<!-- Color Hidden&#45;37 -->
<g id="node5" class="node">
<title>Color Hidden&#45;37</title>
<ellipse fill="none" stroke="black" cx="255.38" cy="-114.5" rx="66.46" ry="18"/>
<text text-anchor="middle" x="255.38" y="-110.22" font-family="arial" font-size="12.00">Color Hidden&#45;37</text>
</g>
<!-- Task Demand&#45;37&#45;&gt;Color Hidden&#45;37 -->
<g id="edge4" class="edge">
<title>Task Demand&#45;37&#45;&gt;Color Hidden&#45;37</title>
<path fill="none" stroke="black" d="M199.31,-61.16C208.37,-69.62 219.37,-79.89 229.22,-89.08"/>
<polygon fill="black" stroke="black" points="226.69,-91.51 236.39,-95.77 231.47,-86.39 226.69,-91.51"/>
</g>
<!-- Color In&#45;37 -->
<g id="node2" class="node">
<title>Color In&#45;37</title>
<ellipse fill="none" stroke="green" stroke-width="3" cx="314.38" cy="-42.5" rx="47.86" ry="18"/>
<text text-anchor="middle" x="314.38" y="-38.23" font-family="arial" font-size="12.00">Color In&#45;37</text>
</g>
<!-- Color In&#45;37&#45;&gt;Color Hidden&#45;37 -->
<g id="edge3" class="edge">
<title>Color In&#45;37&#45;&gt;Color Hidden&#45;37</title>
<path fill="none" stroke="black" d="M299.8,-60.8C292.84,-69.06 284.37,-79.11 276.71,-88.2"/>
<polygon fill="black" stroke="black" points="274.14,-85.82 270.37,-95.72 279.49,-90.33 274.14,-85.82"/>
</g>
<!-- Word In&#45;37 -->
<g id="node3" class="node">
<title>Word In&#45;37</title>
<ellipse fill="none" stroke="green" stroke-width="3" cx="47.38" cy="-42.5" rx="47.38" ry="18"/>
<text text-anchor="middle" x="47.38" y="-38.23" font-family="arial" font-size="12.00">Word In&#45;37</text>
</g>
<!-- Word In&#45;37&#45;&gt;Word Hidden&#45;37 -->
<g id="edge2" class="edge">
<title>Word In&#45;37&#45;&gt;Word Hidden&#45;37</title>
<path fill="none" stroke="black" d="M61.72,-60.8C68.56,-69.06 76.89,-79.11 84.42,-88.2"/>
<polygon fill="black" stroke="black" points="81.57,-90.25 90.65,-95.71 86.96,-85.78 81.57,-90.25"/>
</g>
<!-- Output&#45;45 -->
<g id="node6" class="node">
<title>Output&#45;45</title>
<ellipse fill="none" stroke="black" cx="180.38" cy="-186.5" rx="43.57" ry="18"/>
<text text-anchor="middle" x="180.38" y="-182.22" font-family="arial" font-size="12.00">Output&#45;45</text>
</g>
<!-- Word Hidden&#45;37&#45;&gt;Output&#45;45 -->
<g id="edge6" class="edge">
<title>Word Hidden&#45;37&#45;&gt;Output&#45;45</title>
<path fill="none" stroke="black" d="M123.16,-132.09C132.63,-140.93 144.46,-151.97 154.9,-161.71"/>
<polygon fill="black" stroke="black" points="152.45,-164.21 162.15,-168.48 157.22,-159.1 152.45,-164.21"/>
</g>
<!-- Color Hidden&#45;37&#45;&gt;Output&#45;45 -->
<g id="edge5" class="edge">
<title>Color Hidden&#45;37&#45;&gt;Output&#45;45</title>
<path fill="none" stroke="black" d="M237.61,-132.09C228.13,-140.93 216.31,-151.97 205.87,-161.71"/>
<polygon fill="black" stroke="black" points="203.54,-159.1 198.62,-168.48 208.32,-164.21 203.54,-159.1"/>
</g>
<!-- Decision&#45;42 -->
<g id="node7" class="node">
<title>Decision&#45;42</title>
<ellipse fill="none" stroke="red" stroke-width="3" cx="180.38" cy="-258.5" rx="51.2" ry="18"/>
<text text-anchor="middle" x="180.38" y="-254.22" font-family="arial" font-size="12.00">Decision&#45;42</text>
</g>
<!-- Output&#45;45&#45;&gt;Decision&#45;42 -->
<g id="edge7" class="edge">
<title>Output&#45;45&#45;&gt;Decision&#45;42</title>
<path fill="none" stroke="black" d="M180.38,-204.8C180.38,-211.79 180.38,-220.06 180.38,-227.95"/>
<polygon fill="black" stroke="black" points="176.88,-227.91 180.38,-237.91 183.88,-227.91 176.88,-227.91"/>
</g>
</g>
</svg>