<?xml version="1.0" encoding="UTF-8" standalone="no"?>
<!DOCTYPE svg PUBLIC "-//W3C//DTD SVG 1.1//EN"
 "http://www.w3.org/Graphics/SVG/1.1/DTD/svg11.dtd">
<!-- Generated by graphviz version 12.2.1 (20241206.2353)
 -->
<!-- Title: simple_comp&#45;1 Pages: 1 -->
<svg width="272pt" height="547pt"
 viewBox="0.00 0.00 271.50 546.75" xmlns="http://www.w3.org/2000/svg" xmlns:xlink="http://www.w3.org/1999/xlink">
<g id="graph0" class="graph" transform="scale(1 1) rotate(0) translate(4 542.75)">
<title>simple_comp&#45;1</title>
<polygon fill="white" stroke="none" points="-4,4 -4,-542.75 267.5,-542.75 267.5,4 -4,4"/>
<text text-anchor="middle" x="131.75" y="-7.2" font-family="Times,serif" font-size="14.00">simple_comp&#45;1</text>
<!-- Input&#45;1 -->
<g id="node1" class="node">
<title>Input&#45;1</title>
<polygon fill="#fffff0" stroke="none" points="8,-28.5 8,-248.5 255.5,-248.5 255.5,-28.5 8,-28.5"/>
<polygon fill="#fafad0" stroke="none" points="14,-192 14,-242.5 249.5,-242.5 249.5,-192 14,-192"/>
<polygon fill="PALEGOLDENROD" stroke="none" points="18,-216.25 18,-238.5 245.5,-238.5 245.5,-216.25 18,-216.25"/>
<polygon fill="none" stroke="LIGHTGOLDENRODYELLOW" stroke-width="2" points="19,-217.25 19,-237.5 244.5,-237.5 244.5,-217.25 19,-217.25"/>
<text text-anchor="start" x="95" y="-224.1" font-family="arial" font-weight="bold" font-size="12.00">OutputPort&#45;0</text>
<text text-anchor="start" x="96.88" y="-199.85" font-family="arial" font-weight="bold" font-style="italic" font-size="12.00">OutputPorts</text>
<text text-anchor="start" x="14" y="-142.1" font-family="arial" font-weight="bold" font-style="italic" font-size="12.00">Mechanism</text>
<text text-anchor="start" x="79.25" y="-142.1" font-family="arial" font-weight="bold" font-size="12.00">:</text>
<text text-anchor="start" x="21.88" y="-126.3" font-family="arial" font-weight="bold" font-size="16.00">Input&#45;1</text>
<polygon fill="#fafad0" stroke="none" points="88,-90 88,-187 249.5,-187 249.5,-90 88,-90"/>
<text text-anchor="start" x="92" y="-135.22" font-family="arial" font-weight="bold" font-style="italic" font-size="12.00">ParameterPorts</text>
<polygon fill="PALEGOLDENROD" stroke="none" points="187.25,-94 187.25,-183 245.5,-183 245.5,-94 187.25,-94"/>
<polygon fill="none" stroke="LIGHTGOLDENRODYELLOW" stroke-width="2" points="188.25,-161.75 188.25,-182 244.5,-182 244.5,-161.75 188.25,-161.75"/>
<text text-anchor="start" x="191.25" y="-168.6" font-family="arial" font-weight="bold" font-size="12.00">intercept</text>
<polygon fill="none" stroke="LIGHTGOLDENRODYELLOW" stroke-width="2" points="188.25,-139.5 188.25,-159.75 244.5,-159.75 244.5,-139.5 188.25,-139.5"/>
<text text-anchor="start" x="200.25" y="-146.35" font-family="arial" font-weight="bold" font-size="12.00">offset</text>
<polygon fill="none" stroke="LIGHTGOLDENRODYELLOW" stroke-width="2" points="188.25,-117.25 188.25,-137.5 244.5,-137.5 244.5,-117.25 188.25,-117.25"/>
<text text-anchor="start" x="201.38" y="-124.1" font-family="arial" font-weight="bold" font-size="12.00">scale</text>
<polygon fill="none" stroke="LIGHTGOLDENRODYELLOW" stroke-width="2" points="188.25,-95 188.25,-115.25 244.5,-115.25 244.5,-95 188.25,-95"/>
<text text-anchor="start" x="200.62" y="-101.85" font-family="arial" font-weight="bold" font-size="12.00">slope</text>
<polygon fill="#fafad0" stroke="none" points="14,-34.5 14,-85 249.5,-85 249.5,-34.5 14,-34.5"/>
<text text-anchor="start" x="101.75" y="-70.6" font-family="arial" font-weight="bold" font-style="italic" font-size="12.00">InputPorts</text>
<polygon fill="PALEGOLDENROD" stroke="none" points="18,-38.5 18,-60.75 245.5,-60.75 245.5,-38.5 18,-38.5"/>
<polygon fill="none" stroke="LIGHTGOLDENRODYELLOW" stroke-width="2" points="19,-39.5 19,-59.75 244.5,-59.75 244.5,-39.5 19,-39.5"/>
<text text-anchor="start" x="99.88" y="-46.35" font-family="arial" font-weight="bold" font-size="12.00">InputPort&#45;0</text>
<polygon fill="none" stroke="green" stroke-width="3" points="9.5,-30 9.5,-247 254,-247 254,-30 9.5,-30"/>
</g>
<!-- Output&#45;38 -->
<g id="node2" class="node">
<title>Output&#45;38</title>
<polygon fill="#fffff0" stroke="none" points="13.62,-292.5 13.62,-534.75 249.88,-534.75 249.88,-292.5 13.62,-292.5"/>
<polygon fill="#fafad0" stroke="none" points="19.62,-478.25 19.62,-528.75 243.88,-528.75 243.88,-478.25 19.62,-478.25"/>
<polygon fill="PALEGOLDENROD" stroke="none" points="23.62,-502.5 23.62,-524.75 239.88,-524.75 239.88,-502.5 23.62,-502.5"/>
<polygon fill="none" stroke="LIGHTGOLDENRODYELLOW" stroke-width="2" points="24.62,-503.5 24.62,-523.75 238.88,-523.75 238.88,-503.5 24.62,-503.5"/>
<text text-anchor="start" x="95" y="-510.35" font-family="arial" font-weight="bold" font-size="12.00">OutputPort&#45;0</text>
<text text-anchor="start" x="96.88" y="-486.1" font-family="arial" font-weight="bold" font-style="italic" font-size="12.00">OutputPorts</text>
<text text-anchor="start" x="23" y="-417.23" font-family="arial" font-weight="bold" font-style="italic" font-size="12.00">Mechanism</text>
<text text-anchor="start" x="88.25" y="-417.23" font-family="arial" font-weight="bold" font-size="12.00">:</text>
<text text-anchor="start" x="19.62" y="-401.43" font-family="arial" font-weight="bold" font-size="16.00">Output&#45;38</text>
<polygon fill="#fafad0" stroke="none" points="100.38,-354 100.38,-473.25 243.88,-473.25 243.88,-354 100.38,-354"/>
<text text-anchor="start" x="104.38" y="-410.35" font-family="arial" font-weight="bold" font-style="italic" font-size="12.00">ParameterPorts</text>
<polygon fill="PALEGOLDENROD" stroke="none" points="199.62,-358 199.62,-469.25 239.88,-469.25 239.88,-358 199.62,-358"/>
<polygon fill="none" stroke="LIGHTGOLDENRODYELLOW" stroke-width="2" points="200.62,-448 200.62,-468.25 238.88,-468.25 238.88,-448 200.62,-448"/>
<text text-anchor="start" x="207.75" y="-454.85" font-family="arial" font-weight="bold" font-size="12.00">bias</text>
<polygon fill="none" stroke="LIGHTGOLDENRODYELLOW" stroke-width="2" points="200.62,-425.75 200.62,-446 238.88,-446 238.88,-425.75 200.62,-425.75"/>
<text text-anchor="start" x="207.38" y="-432.6" font-family="arial" font-weight="bold" font-size="12.00">gain</text>
<polygon fill="none" stroke="LIGHTGOLDENRODYELLOW" stroke-width="2" points="200.62,-403.5 200.62,-423.75 238.88,-423.75 238.88,-403.5 200.62,-403.5"/>
<text text-anchor="start" x="203.62" y="-410.35" font-family="arial" font-weight="bold" font-size="12.00">offset</text>
<polygon fill="none" stroke="LIGHTGOLDENRODYELLOW" stroke-width="2" points="200.62,-381.25 200.62,-401.5 238.88,-401.5 238.88,-381.25 200.62,-381.25"/>
<text text-anchor="start" x="204.75" y="-388.1" font-family="arial" font-weight="bold" font-size="12.00">scale</text>
<polygon fill="none" stroke="LIGHTGOLDENRODYELLOW" stroke-width="2" points="200.62,-359 200.62,-379.25 238.88,-379.25 238.88,-359 200.62,-359"/>
<text text-anchor="start" x="209.62" y="-365.85" font-family="arial" font-weight="bold" font-size="12.00">x_0</text>
<polygon fill="#fafad0" stroke="none" points="19.62,-298.5 19.62,-349 243.88,-349 243.88,-298.5 19.62,-298.5"/>
<text text-anchor="start" x="101.75" y="-334.6" font-family="arial" font-weight="bold" font-style="italic" font-size="12.00">InputPorts</text>
<polygon fill="PALEGOLDENROD" stroke="none" points="23.62,-302.5 23.62,-324.75 239.88,-324.75 239.88,-302.5 23.62,-302.5"/>
<polygon fill="none" stroke="LIGHTGOLDENRODYELLOW" stroke-width="2" points="24.62,-303.5 24.62,-323.75 238.88,-323.75 238.88,-303.5 24.62,-303.5"/>
<text text-anchor="start" x="99.88" y="-310.35" font-family="arial" font-weight="bold" font-size="12.00">InputPort&#45;0</text>
<polygon fill="none" stroke="red" stroke-width="3" points="15.12,-294 15.12,-533.25 248.38,-533.25 248.38,-294 15.12,-294"/>
</g>
<!-- Input&#45;1&#45;&gt;Output&#45;38 -->
<g id="edge1" class="edge">
<title>Input&#45;1:OutputPort&#45;OutputPort&#45;0&#45;&gt;Output&#45;38:InputPort&#45;InputPort&#45;0</title>
<path fill="none" stroke="black" d="M131.75,-239.5C131.75,-262.86 131.75,-271.37 131.75,-290.2"/>
<polygon fill="black" stroke="black" points="128.25,-289.99 131.75,-299.99 135.25,-289.99 128.25,-289.99"/>
</g>
</g>
</svg>