<?xml version="1.0" encoding="UTF-8" standalone="no"?>
<!DOCTYPE svg PUBLIC "-//W3C//DTD SVG 1.1//EN"
 "http://www.w3.org/Graphics/SVG/1.1/DTD/svg11.dtd">
<!-- Generated by graphviz version 12.2.1 (20241206.2353)
 -->
<!-- Title: Linear Stroop Pages: 1 -->
<svg width="140pt" height="141pt"
 viewBox="0.00 0.00 140.08 140.50" xmlns="http://www.w3.org/2000/svg" xmlns:xlink="http://www.w3.org/1999/xlink">
<g id="graph0" class="graph" transform="scale(1 1) rotate(0) translate(4 136.5)">
<title>Linear Stroop</title>
<polygon fill="white" stroke="none" points="-4,4 -4,-136.5 136.08,-136.5 136.08,4 -4,4"/>
<text text-anchor="middle" x="66.04" y="-7.2" font-family="Times,serif" font-size="14.00">Linear Stroop</text>
<!-- Color -->
<g id="node1" class="node">
<title>Color</title>
<ellipse fill="none" stroke="green" stroke-width="3" cx="28.78" cy="-42.5" rx="28.78" ry="18"/>
<text text-anchor="middle" x="28.78" y="-38.23" font-family="arial" font-size="12.00">Color</text>
</g>
<!-- Response -->
<g id="node3" class="node">
<title>Response</title>
<ellipse fill="none" stroke="red" stroke-width="3" cx="65.78" cy="-114.5" rx="45" ry="18"/>
<text text-anchor="middle" x="65.78" y="-110.22" font-family="arial" font-size="12.00">Response</text>
</g>
<!-- Color&#45;&gt;Response -->
<g id="edge1" class="edge">
<title>Color&#45;&gt;Response</title>
<path fill="none" stroke="black" d="M37.93,-60.8C41.84,-68.2 46.51,-77.04 50.9,-85.34"/>
<polygon fill="black" stroke="black" points="47.75,-86.88 55.52,-94.08 53.94,-83.6 47.75,-86.88"/>
</g>
<!-- Word -->
<g id="node2" class="node">
<title>Word</title>
<ellipse fill="none" stroke="green" stroke-width="3" cx="103.78" cy="-42.5" rx="28.3" ry="18"/>
<text text-anchor="middle" x="103.78" y="-38.23" font-family="arial" font-size="12.00">Word</text>
</g>
<!-- Word&#45;&gt;Response -->
<g id="edge2" class="edge">
<title>Word&#45;&gt;Response</title>
<path fill="none" stroke="black" d="M94.39,-60.8C90.26,-68.4 85.32,-77.51 80.71,-86"/>
<polygon fill="black" stroke="black" points="77.75,-84.12 76.05,-94.58 83.9,-87.46 77.75,-84.12"/>
</g>
</g>
</svg>