<?xml version="1.0" encoding="UTF-8" standalone="no"?>
<!DOCTYPE svg PUBLIC "-//W3C//DTD SVG 1.1//EN"
 "http://www.w3.org/Graphics/SVG/1.1/DTD/svg11.dtd">
<!-- Generated by graphviz version 12.2.1 (20241206.2353)
 -->
<!-- Title: DDM Stroop Pages: 1 -->
<svg width="166pt" height="213pt"
 viewBox="0.00 0.00 166.44 212.50" xmlns="http://www.w3.org/2000/svg" xmlns:xlink="http://www.w3.org/1999/xlink">
<g id="graph0" class="graph" transform="scale(1 1) rotate(0) translate(4 208.5)">
<title>DDM Stroop</title>
<polygon fill="white" stroke="none" points="-4,4 -4,-208.5 162.44,-208.5 162.44,4 -4,4"/>
<text text-anchor="middle" x="79.22" y="-7.2" font-family="Times,serif" font-size="14.00">DDM Stroop</text>
<!-- Color&#45;2 -->
<g id="node1" class="node">
<title>Color&#45;2</title>
<ellipse fill="none" stroke="green" stroke-width="3" cx="35.46" cy="-42.5" rx="35.46" ry="18"/>
<text text-anchor="middle" x="35.46" y="-38.23" font-family="arial" font-size="12.00">Color&#45;2</text>
</g>
<!-- Output&#45;40 -->
<g id="node3" class="node">
<title>Output&#45;40</title>
<ellipse fill="none" stroke="black" cx="79.46" cy="-114.5" rx="43.57" ry="18"/>
<text text-anchor="middle" x="79.46" y="-110.22" font-family="arial" font-size="12.00">Output&#45;40</text>
</g>
<!-- Color&#45;2&#45;&gt;Output&#45;40 -->
<g id="edge1" class="edge">
<title>Color&#45;2&#45;&gt;Output&#45;40</title>
<path fill="none" stroke="black" d="M46.33,-60.8C51.36,-68.8 57.45,-78.48 63.02,-87.35"/>
<polygon fill="black" stroke="black" points="59.92,-88.99 68.2,-95.6 65.85,-85.27 59.92,-88.99"/>
</g>
<!-- Word&#45;2 -->
<g id="node2" class="node">
<title>Word&#45;2</title>
<ellipse fill="none" stroke="green" stroke-width="3" cx="123.46" cy="-42.5" rx="34.98" ry="18"/>
<text text-anchor="middle" x="123.46" y="-38.23" font-family="arial" font-size="12.00">Word&#45;2</text>
</g>
<!-- Word&#45;2&#45;&gt;Output&#45;40 -->
<g id="edge2" class="edge">
<title>Word&#45;2&#45;&gt;Output&#45;40</title>
<path fill="none" stroke="black" d="M112.58,-60.8C107.55,-68.8 101.47,-78.48 95.9,-87.35"/>
<polygon fill="black" stroke="black" points="93.07,-85.27 90.71,-95.6 99,-88.99 93.07,-85.27"/>
</g>
<!-- Decision&#45;37 -->
<g id="node4" class="node">
<title>Decision&#45;37</title>
<ellipse fill="none" stroke="red" stroke-width="3" cx="79.46" cy="-186.5" rx="51.2" ry="18"/>
<text text-anchor="middle" x="79.46" y="-182.22" font-family="arial" font-size="12.00">Decision&#45;37</text>
</g>
<!-- Output&#45;40&#45;&gt;Decision&#45;37 -->
<g id="edge3" class="edge">
<title>Output&#45;40&#45;&gt;Decision&#45;37</title>
<path fill="none" stroke="black" d="M79.46,-132.8C79.46,-139.79 79.46,-148.06 79.46,-155.95"/>
<polygon fill="black" stroke="black" points="75.96,-155.91 79.46,-165.91 82.96,-155.91 75.96,-155.91"/>
</g>
</g>
</svg>